<svg width="97" height="109" viewBox="0 0 97 109" fill="none" xmlns="http://www.w3.org/2000/svg">
<path d="M50.2883 57.095L36.408 43.548C35.9751 43.0634 35.0328 41.6791 34.7277 40.0182C34.3463 37.942 36.928 33.5158 37.3733 32.7942C37.7295 32.217 37.5827 31.631 37.3406 31.3247C37.0322 30.9376 35.0529 29.2066 34.8203 29.0636C30.9922 26.4236 33.1578 19.3394 34.3636 15.5683C29.1404 10.5019 30.1719 4.65783 30.6786 1.79938C31.084 -0.487376 32.6358 0.545572 33.361 1.34789C40.2199 8.05377 55.7288 23.2167 62.893 30.2215C70.0572 37.2262 65.3308 44.99 62.0721 47.9963C59.8917 50.2817 55.1329 55.2475 53.5411 56.8277C51.9493 58.4078 50.7093 57.6643 50.2883 57.095Z" fill="#FFA012"/>
<path fill-rule="evenodd" clip-rule="evenodd" d="M36.1935 4.11716C35.1432 3.0903 34.1891 2.15746 33.361 1.34789C32.6358 0.545572 31.084 -0.487376 30.6786 1.79938C30.1719 4.65783 29.1404 10.5019 34.3636 15.5683C33.1578 19.3394 30.9922 26.4236 34.8203 29.0636C35.0529 29.2066 37.0322 30.9376 37.3406 31.3247C37.5827 31.631 37.7295 32.217 37.3733 32.7942C36.928 33.5158 34.3463 37.942 34.7277 40.0182C35.0328 41.6791 35.9751 43.0634 36.408 43.548L50.2883 57.095C50.4106 57.2605 50.6022 57.4407 50.8515 57.5742L42.4686 49.3926C41.997 48.8648 40.9707 47.3571 40.6384 45.548C40.223 43.2867 43.0349 38.4657 43.5199 37.6798C43.9079 37.0511 43.7479 36.4129 43.4843 36.0792C43.1484 35.6576 40.9926 33.7722 40.7392 33.6165C36.5697 30.7411 38.9285 23.0251 40.2418 18.9178C34.6699 13.513 35.6329 7.29581 36.1935 4.11716Z" fill="#FF7F12"/>
<path d="M91.7367 45.5259C90.4507 44.8599 87.9524 43.6697 86.8999 43.2869L87.3305 48.3103L87.962 55.3429C90.4784 53.391 95.6549 49.3781 96.229 48.9418C96.8031 48.5055 96.6667 48.095 95.9132 47.7075C95.0329 47.1716 93.0226 46.1918 91.7367 45.5259Z" fill="#FFA012"/>
<path d="M39.4794 70.5862C38.469 70.7699 29.7963 72.8061 25.5863 73.8012C22.0958 74.536 23.0602 72.5764 23.9788 71.5048L32.2458 59.4488L28.1123 38.5517C26.2752 28.815 34.6187 23.74 38.446 22.477C44.9142 20.8313 60.2157 17.1035 69.6768 15.3582C79.1379 13.613 85.7515 23.1085 85.7515 30.2847C86.3639 37.5948 87.6575 50.9062 87.9331 55.3153C88.2775 60.8266 85.9811 64.2712 82.6514 67.8306C79.9876 70.6781 73.4276 71.4665 70.4805 71.5048C60.5678 71.122 40.4898 70.4025 39.4794 70.5862Z" fill="#6C53E7"/>
<circle cx="68.4855" cy="37.476" r="7.44889" fill="white"/>
<path d="M47.8037 55.1703L28.6863 51.898C28.0548 51.7449 26.4932 51.1402 25.2991 49.9461C23.8065 48.4534 23.419 43.344 23.3759 42.4972C23.3414 41.8198 22.8879 41.4208 22.5148 41.3059C22.0411 41.1624 19.429 40.861 19.1563 40.8754C14.5061 40.8754 12.2671 33.814 11.119 30.025C3.94276 28.8194 1.47416 23.4228 0.268562 20.782C-0.695918 18.6693 1.16798 18.6387 2.22049 18.8875C11.6739 20.5141 33.0494 24.1921 42.9239 25.8914C52.7983 27.5908 53.315 36.6653 52.339 40.9902C51.8415 44.1094 50.743 50.8991 50.3297 53.1036C49.9163 55.3081 48.4735 55.4 47.8037 55.1703Z" fill="#FFA012"/>
<path fill-rule="evenodd" clip-rule="evenodd" d="M6.1265 19.5596C4.67808 19.3103 3.36232 19.084 2.22049 18.8875C1.16798 18.6387 -0.695918 18.6693 0.268562 20.782C1.47416 23.4228 3.94276 28.8194 11.119 30.025C12.2671 33.814 14.5061 40.8754 19.1563 40.8754C19.429 40.861 22.0411 41.1624 22.5148 41.3059C22.8879 41.4208 23.3414 41.8198 23.3759 42.4972C23.419 43.344 23.8065 48.4534 25.2991 49.9461C26.4932 51.1402 28.0548 51.7449 28.6863 51.898L47.8037 55.1703C48.0009 55.238 48.2652 55.2777 48.5505 55.2438L36.994 53.2657C36.3062 53.0989 34.6054 52.4403 33.3048 51.1397C31.6791 49.514 31.257 43.9489 31.2101 43.0266C31.1726 42.2887 30.6786 41.8541 30.2721 41.7291C29.7563 41.5727 26.9112 41.2445 26.6142 41.2601C21.5493 41.2601 19.1107 33.569 17.8601 29.4421C10.2078 28.1565 7.47016 22.4956 6.1265 19.5596Z" fill="#FF7F12"/>
<circle cx="69.7921" cy="38.4955" r="3.6168" fill="#4E3F6F"/>
<path d="M25.3851 109.001V95.6919H30.1849V92.3647H16.4512V95.6919H21.2367V109.001H25.3851Z" fill="#503EA9"/>
<path d="M42.4183 98.4528H42.5174L45.4765 109.001H49.3984L53.8583 92.3647H49.5683L47.1755 103.72H47.0764L44.1456 92.3647H40.7901L37.8593 103.72H37.7602L35.3674 92.3647H31.0774L35.5515 109.001H39.4592L42.4183 98.4528Z" fill="#503EA9"/>
<path d="M59.6922 109.001V92.3647H55.5437V109.001H59.6922Z" fill="#503EA9"/>
<path d="M62.1846 92.3647V109.001H69.0373C74.1768 109.001 77.2067 105.886 77.2067 100.591C77.2067 95.2813 74.1768 92.3647 69.0373 92.3647H62.1846ZM66.333 95.6919H68.4993C71.3451 95.6919 72.9733 97.4193 72.9733 100.591C72.9733 103.96 71.4159 105.674 68.4993 105.674H66.333V95.6919Z" fill="#503EA9"/>
<path d="M87.2456 109.001V103.21L93.1355 92.3647H88.7464L85.2493 99.3023H85.1643L81.6813 92.3647H77.2073L83.0972 103.21V109.001H87.2456Z" fill="#503EA9"/>
</svg>
